<?xml version="1.0" encoding="UTF-8"?>
<svg xmlns="http://www.w3.org/2000/svg" xmlns:xlink="http://www.w3.org/1999/xlink" width="100pt" height="100pt" viewBox="0 0 100 100" version="1.1">
<defs>
<linearGradient id="linear0" gradientUnits="userSpaceOnUse" x1="25" y1="0" x2="25" y2="50" gradientTransform="matrix(2,0,0,2,0,0)">
<stop offset="0" style="stop-color:rgb(17.254902%,32.156863%,84.705882%);stop-opacity:0;"/>
<stop offset="1" style="stop-color:rgb(17.254902%,32.156863%,84.705882%);stop-opacity:0.4;"/>
</linearGradient>
</defs>
<g id="surface1">
<path style=" stroke:none;fill-rule:nonzero;fill:rgb(32.941176%,81.960784%,92.941176%);fill-opacity:1;" d="M 100 50 C 100 77.613281 77.613281 100 50 100 C 22.386719 100 0 77.613281 0 50 C 0 22.386719 22.386719 0 50 0 C 77.613281 0 100 22.386719 100 50 Z M 100 50 "/>
<path style=" stroke:none;fill-rule:nonzero;fill:url(#linear0);" d="M 100 50 C 100 77.613281 77.613281 100 50 100 C 22.386719 100 0 77.613281 0 50 C 0 22.386719 22.386719 0 50 0 C 77.613281 0 100 22.386719 100 50 Z M 100 50 "/>
<path style=" stroke:none;fill-rule:nonzero;fill:rgb(98.039216%,97.647059%,99.215686%);fill-opacity:1;" d="M 67.5 50.5 C 67.5 51.605469 66.605469 52.5 65.5 52.5 L 54.5 52.5 C 53.394531 52.5 52.5 53.394531 52.5 54.5 L 52.5 65.5 C 52.5 66.605469 51.605469 67.5 50.5 67.5 L 49.5 67.5 C 48.394531 67.5 47.5 66.605469 47.5 65.5 L 47.5 54.5 C 47.5 53.394531 46.605469 52.5 45.5 52.5 L 34.5 52.5 C 33.394531 52.5 32.5 51.605469 32.5 50.5 L 32.5 49.5 C 32.5 48.394531 33.394531 47.5 34.5 47.5 L 45.5 47.5 C 46.605469 47.5 47.5 46.605469 47.5 45.5 L 47.5 34.5 C 47.5 33.394531 48.394531 32.5 49.5 32.5 L 50.5 32.5 C 51.605469 32.5 52.5 33.394531 52.5 34.5 L 52.5 45.5 C 52.5 46.605469 53.394531 47.5 54.5 47.5 L 65.5 47.5 C 66.605469 47.5 67.5 48.394531 67.5 49.5 Z M 67.5 50.5 "/>
</g>
</svg>
